<?xml version="1.0" standalone="no"?>
<!DOCTYPE svg PUBLIC "-//W3C//DTD SVG 20010904//EN"
 "http://www.w3.org/TR/2001/REC-SVG-20010904/DTD/svg10.dtd">
<svg version="1.0" xmlns="http://www.w3.org/2000/svg"
 width="141.000000pt" height="141.000000pt" viewBox="0 0 141.000000 141.000000"
 preserveAspectRatio="xMidYMid meet">

<g transform="translate(0.000000,141.000000) scale(0.100000,-0.100000)"
fill="#000000" stroke="none">
<path d="M555 1300 c-200 -40 -369 -197 -428 -397 -73 -245 29 -509 254 -659
167 -111 360 -121 547 -28 87 42 187 133 224 201 24 45 53 151 44 160 -2 3
-16 -23 -31 -56 -15 -33 -37 -68 -48 -78 -13 -11 -17 -12 -11 -3 29 40 71 310
48 310 -5 0 -19 -33 -31 -73 -25 -79 -58 -141 -72 -132 -5 3 -12 -3 -16 -14
-10 -32 -127 -134 -190 -166 -55 -27 -69 -30 -160 -30 -94 0 -104 2 -175 36
-186 90 -282 303 -224 500 38 130 117 228 223 278 50 23 68 26 161 26 86 -1
116 -5 163 -24 70 -28 167 -114 208 -185 35 -62 38 -54 5 13 -33 64 -122 144
-204 181 -37 17 -78 37 -91 43 -37 18 -167 12 -241 -12 -70 -22 -89 -21 -43 2
56 30 140 47 239 49 l102 3 84 -43 c96 -49 168 -115 222 -206 39 -64 48 -68
17 -8 -10 20 -21 49 -25 63 -8 37 -150 167 -212 196 -113 52 -243 72 -339 53z"/>
</g>
</svg>
